<?xml version="1.0" encoding="utf-8"?>
<!-- Generator: Adobe Illustrator 23.0.3, SVG Export Plug-In . SVG Version: 6.00 Build 0)  -->
<svg version="1.1" id="Layer_1" xmlns="http://www.w3.org/2000/svg" xmlns:xlink="http://www.w3.org/1999/xlink" x="0px" y="0px"
	 viewBox="0 0 357.64 53.06" style="enable-background:new 0 0 357.64 53.06;" xml:space="preserve">
<style type="text/css">
	.st0{fill:#ED1C24;}
</style>
<g>
	<path class="st0" d="M13.71,36.3l-1.11,3.02l-0.54,0.46l-3.23,0.36l0.05-0.67c0.21-2.79,0.32-4.54,0.34-5.27
		c-0.72,1.14-1.36,1.88-1.91,2.22c-0.31,0.19-0.68,0.34-1.1,0.45c-0.42,0.11-0.83,0.17-1.23,0.17c-0.91,0-1.64-0.28-2.19-0.85
		c-0.55-0.57-0.83-1.22-0.83-1.96c0-0.93,0.32-1.95,0.97-3.06c0.65-1.11,1.43-2.05,2.36-2.83c0.93-0.77,1.78-1.16,2.56-1.16
		c1.38,0,2.44,0.51,3.19,1.52c0.75,1.02,1.12,2.44,1.12,4.28c-0.02,0.36-0.04,0.84-0.08,1.45c-0.03,0.6-0.07,1.13-0.1,1.57
		l1.57-0.16L13.71,36.3z M9.06,32.91c-0.21-0.65-0.6-1.12-1.19-1.39c-0.59-0.28-1.37-0.41-2.35-0.41c-0.55,0-1.04,0.08-1.47,0.23
		c0.12,0.62,0.48,1.13,1.08,1.52c0.6,0.4,1.26,0.59,1.99,0.59C7.87,33.46,8.51,33.28,9.06,32.91z"/>
	<path class="st0" d="M11.7,26.15l2.4-1.6l0.36,0.59c0.48,0.79,0.89,1.39,1.21,1.81l-2.17,1.42C12.9,27.91,12.3,27.17,11.7,26.15z
		 M18.12,30.63c1.19,0.42,2.14,0.86,2.87,1.33c0,0.79-0.17,1.76-0.5,2.92c-0.34,1.15-0.7,2.01-1.1,2.58c-0.6,0.5-1.54,0.96-2.8,1.39
		c-1.26,0.43-2.78,0.74-4.53,0.93l1.5-3.92c1.33-0.14,2.39-0.29,3.19-0.45c0.8-0.16,1.58-0.36,2.34-0.58
		c-0.67-0.34-1.52-0.67-2.54-0.97c-1.02-0.3-1.96-0.51-2.8-0.63l1.29-3.38C15.9,29.95,16.94,30.21,18.12,30.63z"/>
	<path class="st0" d="M26,26.67l-1.11,3.02l-0.54,0.44l-3.17,0.34l0.15-3.61c-0.74-0.09-1.25-0.13-1.52-0.13
		c-1.81,0-3.03,0.92-3.67,2.76l-0.28,0.7l-0.98,0.1l1.06-2.84c0.5-1.38,1.21-2.45,2.14-3.23c0.93-0.77,1.98-1.16,3.15-1.16
		c1,0,1.91,0.14,2.74,0.41l-0.15,2.97l2.04-0.21L26,26.67z"/>
	<polygon class="st0" points="22.23,32.89 26.9,31.62 26.38,34.28 21.79,35.29 	"/>
	<path class="st0" d="M35.42,25.66l-1.11,3.02l-0.54,0.47l-0.49,0.05c-0.41,0.03-0.72,0.05-0.93,0.05c-1,0-1.91-0.18-2.74-0.54
		c-1.24,0.71-2.61,1.14-4.1,1.29l-1.16,0.13l1.45-3.92l1.34-0.13c-0.05-0.24-0.08-0.46-0.08-0.65c0-0.45,0.13-1.01,0.39-1.69
		c0.26-0.68,0.56-1.33,0.92-1.96c0.35-0.63,0.66-1.06,0.92-1.3c0.48-0.48,1.15-0.72,2.01-0.72c0.76,0,1.39,0.19,1.91,0.55
		c0.52,0.37,0.77,0.88,0.77,1.54c0,1.2-0.34,2.39-1.01,3.56c0.4,0,0.84-0.03,1.34-0.08l0.96-0.1L35.42,25.66z M28.84,23.54
		c0.24,0.69,0.79,1.2,1.65,1.52c0.65-0.36,1.2-0.77,1.65-1.24c-0.57-0.38-1.22-0.57-1.96-0.57C29.7,23.26,29.25,23.36,28.84,23.54z
		 M29.25,15.75l2.4-1.6l0.36,0.59c0.48,0.79,0.89,1.39,1.21,1.81l-2.17,1.42C30.45,17.5,29.85,16.76,29.25,15.75z"/>
	<path class="st0" d="M39.56,20.92c0.4,0.71,0.61,1.34,0.61,1.87c0,0.64-0.17,1.46-0.5,2.47c-0.34,1.01-0.7,1.79-1.1,2.36
		c-0.47,0.33-1.14,0.64-2.01,0.93c-0.88,0.29-1.81,0.49-2.79,0.59l1.5-3.92l3.07-0.31c-0.57-0.79-1.57-1.68-2.99-2.66l2.81-3.02
		C38.69,19.65,39.16,20.21,39.56,20.92z M35.08,15.62l2.4-1.6l0.36,0.59c0.48,0.79,0.89,1.39,1.21,1.81l-2.17,1.42
		C36.29,17.37,35.69,16.63,35.08,15.62z"/>
	<path class="st0" d="M46.4,35.86l-1.11,3.02l-0.54,0.47l-2.43,0.26l-0.41-4.16c-0.29,0.62-0.65,1.29-1.08,2
		c-0.43,0.71-0.79,1.23-1.08,1.54c-0.93,1.03-2.06,1.55-3.38,1.55c-0.77,0-1.68-0.19-2.72-0.58c-1.04-0.39-1.81-0.81-2.31-1.28
		c1.7-0.48,3.49-1.08,5.36-1.79c1.87-0.71,3.28-1.34,4.25-1.87l2.87-3.48l0.49,0.39l0.36,3.69l1.6-0.18L46.4,35.86z"/>
	<path class="st0" d="M52.65,31.33c0.45,0.23,0.67,0.51,0.67,0.84c0,0.84-0.14,1.67-0.41,2.49c-0.28,0.82-0.64,1.53-1.1,2.14
		c-0.46,0.61-0.93,1.05-1.43,1.33c-1.45,0.57-3.32,0.97-5.63,1.21l1.5-3.92l0.72-0.08c0.34-0.03,0.6-0.07,0.77-0.1
		c-0.1-0.21-0.16-0.4-0.16-0.57c0-0.38,0.14-0.93,0.43-1.66c0.28-0.73,0.57-1.2,0.86-1.41c0.26-0.19,0.58-0.34,0.97-0.45
		c0.39-0.11,0.8-0.17,1.23-0.17C51.67,30.98,52.2,31.1,52.65,31.33z"/>
	<path class="st0" d="M59.98,36.5l-1.11,3.02l-0.54,0.46l-2.48,0.26c-0.02-1.69-0.1-3.75-0.25-6.18c-0.15-2.44-0.31-4.6-0.48-6.49
		c0.48-0.58,1.02-1.14,1.63-1.68c0.6-0.53,1.14-0.93,1.63-1.19c0.09,0.34,0.13,0.89,0.13,1.63c0.02,1.33-0.07,3.1-0.26,5.33
		c-0.19,2.23-0.36,3.77-0.52,4.63l2.09-0.23L59.98,36.5z"/>
	<path class="st0" d="M68.29,38.96l-6.66,0.7c-0.21,1.02-0.4,2.31-0.57,3.87l-0.77-0.03l0.13-1.16c0.05-0.72,0.15-1.59,0.28-2.61
		l-2.37,0.26l1.5-3.92l1.78-0.21c0.72-2.05,1.71-3.61,2.97-4.7c1.26-1.08,2.65-1.63,4.18-1.63c0.46,0,0.88,0.05,1.24,0.14
		c0.36,0.09,0.64,0.22,0.83,0.37C70.51,32.91,69.67,35.87,68.29,38.96z M62.64,42.88l2.4-1.6l0.36,0.59
		c0.48,0.79,0.89,1.39,1.21,1.81l-2.17,1.42C63.84,44.63,63.24,43.89,62.64,42.88z M64.44,34.05c-0.67,0.4-1.21,0.96-1.63,1.68
		l4.88-0.54c0.09-0.4,0.17-0.92,0.26-1.57c-0.36-0.1-0.77-0.16-1.21-0.16C65.88,33.46,65.11,33.65,64.44,34.05z"/>
	<path class="st0" d="M87.99,30.57c0.33,0.71,0.49,1.3,0.49,1.78c0,0.48-0.12,1.21-0.37,2.18c-0.25,0.97-0.55,1.78-0.92,2.41
		c-0.58,1.03-1.51,1.89-2.76,2.58c-1.26,0.69-2.53,1.03-3.82,1.03c-1.34,0-2.47-0.34-3.39-1.03c-0.92-0.69-1.42-1.59-1.48-2.71
		c0.29-1.15,0.8-2.39,1.51-3.7c0.71-1.32,1.56-2.58,2.54-3.78c0.84,0.12,1.74,0.34,2.68,0.64l-1.14,3.23
		c-0.5-0.21-1.08-0.4-1.76-0.57c-0.57,0.6-1.19,1.36-1.86,2.27c0.45,0.55,1.03,0.98,1.74,1.28c0.71,0.3,1.5,0.45,2.36,0.45
		c0.93,0,1.81-0.15,2.63-0.44c0.83-0.29,1.53-0.7,2.12-1.21c-0.43-1.14-1.24-2.19-2.43-3.15l2.74-2.94
		C87.29,29.3,87.66,29.86,87.99,30.57z"/>
	<path class="st0" d="M102.03,30.93l-1.11,3.02l-0.54,0.46l-1.19,0.13c-0.21,1.08-0.57,2.09-1.1,3.01
		c-0.53,0.92-1.18,1.65-1.96,2.19c-0.78,0.54-1.65,0.81-2.59,0.81c-0.77,0-1.67-0.19-2.69-0.58c-1.02-0.39-1.76-0.81-2.25-1.28
		c1.36-0.4,2.88-0.9,4.56-1.51c1.68-0.61,3.06-1.17,4.14-1.67l-0.16-0.9h-1.21c-0.65,0-1.18-0.1-1.58-0.3
		c-0.4-0.2-0.59-0.48-0.59-0.84c0-0.43,0.23-1.01,0.7-1.73c0.47-0.72,1.02-1.36,1.65-1.92c0.64-0.56,1.19-0.84,1.65-0.84
		c0.31,0,0.58,0.16,0.83,0.47c0.24,0.31,0.43,0.74,0.57,1.29l2.71-0.26L102.03,30.93z"/>
	<path class="st0" d="M108.53,31.11l0.16,0.44l-1.11,3.02l-0.54,0.46l-2.5,0.26c0.05-1.08,0.08-2.19,0.08-3.3
		c0-0.26-0.02-0.63-0.05-1.11c-0.31,1.15-0.65,2.12-1.03,2.89c-0.93,0.31-1.98,0.53-3.15,0.64l1.5-3.92
		c0.93-0.09,1.8-0.24,2.61-0.47c-0.22-1.84-0.72-3.71-1.5-5.6c0.41-0.72,0.89-1.42,1.45-2.09c0.55-0.67,1.07-1.2,1.55-1.57
		c0.17,0.41,0.34,1.3,0.5,2.67c0.16,1.37,0.25,2.59,0.25,3.65c0,0.86-0.03,1.68-0.08,2.45c-0.05,0.77-0.11,1.37-0.18,1.78
		L108.53,31.11z M116.07,13.01c-0.33,1.24-0.9,2.41-1.73,3.51c-2.86,1.22-5.44,2.51-7.74,3.87l-0.31-0.34
		c0.6-0.95,1.16-1.71,1.68-2.3C110.22,16.13,112.92,14.54,116.07,13.01z"/>
	<path class="st0" d="M107.4,37.59l4.67-1.26l-0.52,2.66l-4.59,1.01L107.4,37.59z M112.83,26.81c0.4,0.71,0.61,1.34,0.61,1.87
		c0,0.64-0.17,1.46-0.5,2.47c-0.34,1.01-0.7,1.79-1.1,2.36c-0.47,0.33-1.14,0.64-2.01,0.93c-0.88,0.29-1.81,0.49-2.79,0.59l1.5-3.92
		l3.07-0.31c-0.57-0.79-1.57-1.68-2.99-2.66l2.81-3.02C111.96,25.53,112.43,26.1,112.83,26.81z"/>
	<path class="st0" d="M136.29,26l-1.11,3.02l-0.54,0.46c-1.29,0.12-2.88,0.34-4.78,0.67c0.77,0.07,1.55,0.19,2.34,0.35
		c0.78,0.16,1.43,0.33,1.95,0.5c-0.26,1.79-0.54,3.17-0.84,4.14c-0.3,0.97-0.68,1.73-1.15,2.26c-0.77,0.9-1.9,1.64-3.38,2.25
		c-1.48,0.6-2.99,0.9-4.54,0.9c-1.33,0-2.47-0.37-3.43-1.1c-0.96-0.73-1.5-1.74-1.6-3.03c0.58-1.62,1.32-3.12,2.19-4.5
		s2-2.71,3.38-3.99l0.54,2.43c-0.93,0.72-1.69,1.39-2.27,2.01c-0.59,0.62-1.11,1.29-1.57,2.01c0.45,0.69,1.02,1.21,1.72,1.56
		c0.7,0.35,1.58,0.53,2.65,0.53c1.34,0,2.59-0.22,3.76-0.66c1.16-0.44,2.11-1.01,2.85-1.72c-0.71-0.22-1.67-0.43-2.89-0.62
		c-1.22-0.19-2.3-0.3-3.23-0.34c0.71-2.31,1.54-4.24,2.5-5.81c0.93-0.43,2.03-0.8,3.3-1.1c1.27-0.3,2.61-0.53,4-0.68L136.29,26z
		 M123.48,43.11l4.67-1.26l-0.52,2.66l-4.59,1.01L123.48,43.11z"/>
	<path class="st0" d="M142.2,25.38l-1.11,3.02l-0.54,0.46l-2.84,0.28l0.31-1.06c-0.59,0.76-1.71,1.22-3.38,1.39l1.5-3.92
		c1.2-0.12,2.17-0.37,2.89-0.75l0.57-1.88l0.83,0.08l-0.46,2.14l2.09-0.21L142.2,25.38z M137.83,18.25l4.67-1.26l-0.52,2.66
		l-4.59,1.01L137.83,18.25z"/>
	<path class="st0" d="M150.51,27.83l-6.66,0.7c-0.21,1.02-0.4,2.31-0.57,3.87l-0.77-0.03l0.13-1.16c0.05-0.72,0.15-1.59,0.28-2.61
		l-2.37,0.26l1.5-3.92l1.78-0.21c0.72-2.05,1.71-3.61,2.97-4.7c1.26-1.08,2.65-1.63,4.18-1.63c0.46,0,0.88,0.05,1.24,0.14
		c0.36,0.09,0.64,0.22,0.83,0.37C152.73,21.78,151.89,24.75,150.51,27.83z M146.66,22.92c-0.67,0.4-1.21,0.96-1.63,1.68l4.88-0.54
		c0.09-0.4,0.17-0.92,0.26-1.57c-0.36-0.1-0.77-0.16-1.21-0.16C148.1,22.33,147.33,22.53,146.66,22.92z"/>
	<path class="st0" d="M166.18,30.99c0.4,0.71,0.61,1.34,0.61,1.87c0,0.64-0.17,1.46-0.5,2.47c-0.34,1.01-0.7,1.79-1.1,2.36
		c-0.48,0.48-1.26,0.95-2.32,1.39s-2.26,0.8-3.59,1.07c-1.33,0.27-2.59,0.4-3.79,0.4c-2.06,0-3.69-0.37-4.87-1.12
		c-1.18-0.75-1.77-1.79-1.77-3.11c0.41-1.15,0.96-2.23,1.64-3.24c0.68-1.01,1.59-2.07,2.72-3.19l0.49,2.22
		c-0.86,0.62-1.71,1.36-2.56,2.22c0.45,0.81,1.14,1.39,2.09,1.76c0.95,0.36,2.24,0.54,3.87,0.54c1.38,0,2.76-0.12,4.14-0.37
		c1.39-0.25,2.55-0.57,3.5-0.97c-0.52-0.86-1.45-1.85-2.79-2.97l2.81-3.02C165.31,29.71,165.77,30.28,166.18,30.99z M156.56,27.83
		l4.67-1.26l-0.52,2.66l-4.59,1.01L156.56,27.83z"/>
	<path class="st0" d="M173.45,36.5l-1.11,3.02l-0.54,0.46l-2.48,0.26c-0.02-1.69-0.1-3.75-0.25-6.18c-0.15-2.44-0.31-4.6-0.48-6.49
		c0.48-0.58,1.02-1.14,1.63-1.68c0.6-0.53,1.14-0.93,1.63-1.19c0.09,0.34,0.13,0.89,0.13,1.63c0.02,1.33-0.07,3.1-0.26,5.33
		c-0.19,2.23-0.36,3.77-0.52,4.63l2.09-0.23L173.45,36.5z"/>
	<path class="st0" d="M180.7,35.73l-1.11,3.02l-0.54,0.46l-3.18,0.34l0.16-3.28c-0.36,1.29-0.72,2.31-1.08,3.07
		c-0.93,0.31-1.98,0.52-3.15,0.65l1.5-3.92c1.05-0.12,1.97-0.29,2.76-0.52l0.1-2.56l2.5-1.29l-0.18,3.79l2.06-0.21L180.7,35.73z
		 M173.57,42.54l4.67-1.26l-0.52,2.66l-4.6,1.01L173.57,42.54z"/>
	<path class="st0" d="M192.51,29.4c0.35,0.45,0.53,1.15,0.53,2.12c0,0.88-0.18,1.84-0.53,2.88c-0.35,1.04-0.76,1.78-1.23,2.21
		c-0.91,0.86-2.93,1.54-6.07,2.04l-0.41,1.37l-0.83-0.13l0.31-1.11c-0.84,0.12-1.61,0.22-2.3,0.28l-0.75,0.08l0.26-0.7
		c-0.62,0.4-1.44,0.65-2.45,0.77l1.5-3.92c0.95-0.1,1.74-0.32,2.37-0.65l0.46-1.24l0.83,0.13l-0.44,1.58l0.18-0.03
		c0.64-0.07,1.14-0.13,1.5-0.18c0.45-1.45,0.82-2.5,1.12-3.15c0.3-0.65,0.62-1.19,0.97-1.6c0.38-0.43,0.87-0.77,1.48-1.03
		c0.61-0.26,1.23-0.39,1.87-0.39C191.62,28.73,192.16,28.96,192.51,29.4z M190.34,33.93c0.99-0.32,1.48-0.61,1.48-0.86
		c0-0.14-0.13-0.25-0.39-0.32c-0.26-0.08-0.6-0.12-1.03-0.12c-0.67,0-1.36,0.1-2.05,0.31c-0.7,0.21-1.22,0.46-1.56,0.75l-0.39,1.08
		C188.04,34.53,189.35,34.25,190.34,33.93z M188.65,24.78l2.4-1.6l0.36,0.59c0.48,0.79,0.89,1.39,1.21,1.81L190.46,27
		C189.86,26.54,189.25,25.8,188.65,24.78z"/>
	<path class="st0" d="M199.88,36.5l-1.11,3.02l-0.54,0.46l-2.48,0.26c-0.02-1.69-0.1-3.75-0.25-6.18c-0.15-2.44-0.31-4.6-0.48-6.49
		c0.48-0.58,1.02-1.14,1.63-1.68c0.6-0.53,1.14-0.93,1.63-1.19c0.09,0.34,0.13,0.89,0.13,1.63c0.02,1.33-0.07,3.1-0.26,5.33
		c-0.19,2.23-0.36,3.77-0.52,4.63l2.09-0.23L199.88,36.5z"/>
	<path class="st0" d="M198.18,42.54l4.67-1.26l-0.52,2.66l-4.59,1.01L198.18,42.54z M203.21,33.28c-0.24,2.29-0.8,4.33-1.68,6.12
		c-0.79,0.24-1.89,0.44-3.3,0.59l1.5-3.92c0.86-0.1,1.56-0.23,2.09-0.39c0.24-0.95,0.43-1.76,0.57-2.43L203.21,33.28z"/>
	<path class="st0" d="M217.36,31.42l-1.11,3.02l-0.54,0.46l-1.37,0.13c-0.46,1.6-1.18,2.94-2.14,4.03
		c-0.96,1.08-2.15,1.63-3.56,1.63c-0.76,0-1.66-0.2-2.71-0.61c-1.05-0.4-1.79-0.82-2.22-1.25c1.58-0.47,3.3-1.05,5.15-1.74
		c1.85-0.7,3.32-1.34,4.4-1.92l1.32-2.69c0.26-0.52,0.52-0.86,0.77-1.05c0.26-0.18,0.69-0.31,1.29-0.37l0.57-0.08L217.36,31.42z"/>
	<path class="st0" d="M222.91,22.37c0.16,1.82,0.23,3.55,0.23,5.2c0,0.36-0.06,0.89-0.18,1.59c-0.12,0.7-0.3,1.39-0.53,2.08
		c-0.23,0.69-0.51,1.2-0.84,1.55c-0.6,0.53-1.41,0.99-2.43,1.36c-1.02,0.37-2.17,0.62-3.46,0.76l1.5-3.92
		c0.65-0.07,1.34-0.18,2.05-0.35c0.71-0.16,1.34-0.35,1.87-0.56c-0.1-1.02-0.33-2.25-0.67-3.72c-0.34-1.46-0.7-2.74-1.06-3.82
		c0.41-0.72,0.89-1.42,1.45-2.09c0.55-0.67,1.07-1.2,1.55-1.57C222.58,19.39,222.75,20.55,222.91,22.37z"/>
	<path class="st0" d="M225.75,39.96c0.02-1.65-0.03-3.65-0.13-6c-0.1-2.35-0.24-4.44-0.41-6.26c0.48-0.58,1.02-1.14,1.63-1.68
		c0.6-0.53,1.14-0.93,1.63-1.19c0.1,0.38,0.15,1.13,0.15,2.25c0,1.53-0.08,3.35-0.23,5.46c-0.15,2.11-0.28,3.35-0.39,3.73l-1.68,3.9
		L225.75,39.96z"/>
	<path class="st0" d="M242.68,33.15c0.57,0.26,1.01,0.56,1.33,0.9c0.32,0.34,0.48,0.65,0.48,0.9c0,0.69-0.24,1.46-0.71,2.31
		c-0.47,0.85-1.02,1.53-1.64,2.03c-0.86,0.26-2.6,0.53-5.22,0.83l0.28,4.98c-0.29,1.98-1.01,3.31-2.14,4l-1.16-8.75
		c0.14-0.5,0.49-1.07,1.05-1.72c0.56-0.65,1.18-1.21,1.87-1.69c0.69-0.48,1.27-0.75,1.76-0.8c0.1-0.02,0.27-0.03,0.52-0.03v-0.13
		c0-0.26,0.13-0.76,0.39-1.5c0.26-0.74,0.46-1.22,0.59-1.45c0.19-0.29,0.41-0.45,0.67-0.46l0.03,0.1
		C241.47,32.73,242.11,32.89,242.68,33.15z M243.35,24.74c0.15,1.82,0.23,3.55,0.23,5.2c0,0.52-0.12,1.25-0.35,2.21
		c-0.23,0.95-0.51,1.7-0.84,2.23c-0.36,0.62-0.82,1.11-1.37,1.47c-0.55,0.36-1.14,0.58-1.78,0.65l1.5-3.92l0.85-0.1
		c-0.1-1.03-0.33-2.28-0.68-3.76c-0.35-1.47-0.71-2.74-1.07-3.81c0.41-0.72,0.89-1.42,1.45-2.09c0.55-0.67,1.07-1.2,1.55-1.58
		C243.02,21.76,243.2,22.93,243.35,24.74z"/>
	<path class="st0" d="M252.13,36.5l-1.11,3.02l-0.54,0.46L248,40.25c-0.02-1.69-0.1-3.75-0.25-6.18c-0.15-2.44-0.3-4.6-0.48-6.49
		c0.48-0.58,1.02-1.14,1.63-1.68c0.6-0.53,1.14-0.93,1.63-1.19c0.09,0.34,0.13,0.89,0.13,1.63c0.02,1.33-0.07,3.1-0.26,5.33
		c-0.19,2.23-0.36,3.77-0.52,4.63l2.09-0.23L252.13,36.5z"/>
	<path class="st0" d="M261.42,35.06l-1.45,3.92l-9.5,1.01l1.5-3.92l1.34-0.16c-0.02-0.07-0.03-0.17-0.03-0.31
		c0-0.5,0.15-1.1,0.46-1.79c0.31-0.7,0.69-1.37,1.14-2.01c0.45-0.64,0.84-1.11,1.19-1.38c0.41-0.31,1.12-0.61,2.12-0.9
		c1-0.29,1.84-0.47,2.53-0.52l-1.11,3.67c-1.5,0.14-2.85,0.4-4.05,0.77c0.29,0.45,0.69,0.86,1.19,1.23c0.5,0.37,1.02,0.62,1.55,0.74
		L261.42,35.06z"/>
	<path class="st0" d="M278.33,36.3l-1.11,3.02l-0.54,0.46l-3.23,0.36l0.05-0.67c0.21-2.79,0.32-4.54,0.34-5.27
		c-0.72,1.14-1.36,1.88-1.91,2.22c-0.31,0.19-0.68,0.34-1.1,0.45c-0.42,0.11-0.83,0.17-1.23,0.17c-0.91,0-1.64-0.28-2.19-0.85
		c-0.55-0.57-0.83-1.22-0.83-1.96c0-0.93,0.32-1.95,0.97-3.06c0.64-1.11,1.43-2.05,2.36-2.83c0.93-0.77,1.78-1.16,2.55-1.16
		c1.38,0,2.44,0.51,3.19,1.52c0.75,1.02,1.12,2.44,1.12,4.28c-0.02,0.36-0.04,0.84-0.08,1.45c-0.03,0.6-0.07,1.13-0.1,1.57
		l1.58-0.16L278.33,36.3z M273.68,32.91c-0.21-0.65-0.6-1.12-1.19-1.39c-0.58-0.28-1.37-0.41-2.35-0.41c-0.55,0-1.04,0.08-1.47,0.23
		c0.12,0.62,0.48,1.13,1.08,1.52c0.6,0.4,1.27,0.59,1.99,0.59C272.49,33.46,273.13,33.28,273.68,32.91z"/>
	<path class="st0" d="M287.52,30.07c0.79,0.21,1.44,0.49,1.94,0.85c-0.19,1.38-0.68,2.68-1.48,3.91c-0.8,1.23-1.87,2.26-3.2,3.07
		c-1.33,0.82-2.87,1.32-4.61,1.51l-3.48,0.36l1.5-3.92l1.21-0.13h0.1c-0.02-0.12-0.03-0.31-0.03-0.57c0-0.43,0.13-0.96,0.4-1.59
		c0.27-0.63,0.58-1.22,0.94-1.78c0.36-0.56,0.67-0.94,0.93-1.15c0.38-0.28,0.87-0.49,1.47-0.65c0.6-0.16,1.23-0.23,1.88-0.23
		C285.92,29.77,286.73,29.87,287.52,30.07z M280.27,42.41l2.4-1.6l0.36,0.59c0.48,0.79,0.89,1.39,1.21,1.81l-2.17,1.42
		C281.47,44.17,280.87,43.43,280.27,42.41z M286.77,34.18c-1-0.64-2.28-0.96-3.85-0.96c-0.52,0-1,0.09-1.45,0.26
		c0.24,0.34,0.58,0.65,1.03,0.92c0.45,0.27,0.97,0.47,1.57,0.61C285.26,34.71,286.15,34.44,286.77,34.18z"/>
	<path class="st0" d="M295.76,36.5l-1.11,3.02l-0.54,0.46l-2.48,0.26c-0.02-1.69-0.1-3.75-0.25-6.18c-0.15-2.44-0.3-4.6-0.48-6.49
		c0.48-0.58,1.02-1.14,1.63-1.68c0.6-0.53,1.14-0.93,1.63-1.19c0.09,0.34,0.13,0.89,0.13,1.63c0.02,1.33-0.07,3.1-0.26,5.33
		c-0.19,2.23-0.36,3.77-0.52,4.63l2.09-0.23L295.76,36.5z"/>
	<path class="st0" d="M301.67,35.88l-1.11,3.02l-0.54,0.46l-2.84,0.28l0.31-1.06c-0.58,0.76-1.71,1.22-3.38,1.39l1.5-3.92
		c1.2-0.12,2.17-0.37,2.89-0.75l0.57-1.88l0.83,0.08l-0.46,2.14l2.09-0.21L301.67,35.88z M297.3,28.76l4.67-1.26l-0.52,2.66
		l-4.6,1.01L297.3,28.76z"/>
	<path class="st0" d="M306.08,30.22c1.19,0.42,2.14,0.86,2.86,1.33c0,0.79-0.17,1.76-0.5,2.92c-0.34,1.15-0.7,2.01-1.1,2.58
		c-0.6,0.5-1.54,0.96-2.8,1.39c-1.26,0.43-2.77,0.74-4.53,0.93l1.5-3.92c1.33-0.14,2.39-0.29,3.19-0.45
		c0.8-0.16,1.58-0.36,2.34-0.58c-0.67-0.34-1.52-0.67-2.54-0.97c-1.02-0.3-1.96-0.51-2.8-0.63l1.29-3.38
		C303.86,29.53,304.9,29.8,306.08,30.22z"/>
	<path class="st0" d="M304.02,26.74c0.93-2.48,2.51-3.72,4.75-3.72c0.53,0,1.08,0.06,1.64,0.19c0.56,0.13,1,0.29,1.33,0.48
		l-1.96,4.85l-0.8-0.1l0.26-1.24c-0.17-0.1-0.44-0.19-0.81-0.26c-0.37-0.07-0.74-0.1-1.1-0.1c-0.83,0-1.49,0.19-2,0.55
		c-0.51,0.37-0.95,1-1.33,1.9l-0.28,0.7l-0.98,0.1L304.02,26.74z M308.97,30.36l4.67-1.26l-0.52,2.66l-4.6,1.01L308.97,30.36z"/>
	<path class="st0" d="M322.01,36.5l-1.11,3.02l-0.54,0.46l-2.48,0.26c-0.02-1.69-0.1-3.75-0.25-6.18c-0.15-2.44-0.3-4.6-0.48-6.49
		c0.48-0.58,1.02-1.14,1.63-1.68c0.6-0.53,1.14-0.93,1.63-1.19c0.09,0.34,0.13,0.89,0.13,1.63c0.02,1.33-0.07,3.1-0.26,5.33
		c-0.19,2.23-0.36,3.77-0.52,4.63l2.09-0.23L322.01,36.5z"/>
	<path class="st0" d="M328.26,31.97c0.45,0.23,0.67,0.51,0.67,0.84c0,0.84-0.14,1.67-0.41,2.49c-0.27,0.82-0.64,1.53-1.1,2.14
		c-0.46,0.61-0.93,1.05-1.43,1.33c-1.45,0.57-3.32,0.97-5.63,1.21l1.5-3.92l0.72-0.08c0.34-0.03,0.6-0.07,0.77-0.1
		c-0.1-0.21-0.15-0.4-0.15-0.57c0-0.38,0.14-0.93,0.43-1.66c0.28-0.73,0.57-1.2,0.86-1.41c0.26-0.19,0.58-0.34,0.97-0.45
		c0.39-0.11,0.8-0.17,1.23-0.17C327.29,31.62,327.81,31.74,328.26,31.97z"/>
	<path class="st0" d="M348.68,32.81l-1.11,3.02l-0.54,0.46l-1.03,0.1c-0.22,0.71-0.49,1.26-0.8,1.65c-0.64,0.69-1.5,1.28-2.59,1.77
		c-1.09,0.49-2.2,0.74-3.32,0.74c-1.15,0-2.19-0.28-3.11-0.83c-0.92-0.55-1.48-1.23-1.67-2.04c0.16-0.93,0.65-2.1,1.5-3.52
		c0.84-1.42,1.75-2.55,2.71-3.39l0.39,2.22c-0.46,0.34-0.94,0.75-1.42,1.21c-0.48,0.46-0.86,0.88-1.14,1.24
		c0.28,0.36,0.73,0.65,1.37,0.86c0.64,0.22,1.4,0.32,2.3,0.32c0.93,0,1.78-0.11,2.54-0.32c0.77-0.22,1.42-0.49,1.95-0.84
		c-0.1-1.03-0.33-2.31-0.68-3.82c-0.35-1.51-0.71-2.8-1.07-3.85c0.41-0.72,0.89-1.42,1.45-2.09c0.55-0.67,1.07-1.2,1.55-1.58
		c0.17,0.5,0.33,1.61,0.49,3.34c0.15,1.73,0.24,3.43,0.26,5.1l1.83-0.21L348.68,32.81z"/>
	<path class="st0" d="M354.87,24.55c-2.13,0.84-4.01,1.67-5.63,2.48c1.14,0.22,2.05,0.66,2.74,1.32c0.69,0.65,1.03,1.39,1.03,2.22
		c0,0.77-0.24,1.66-0.74,2.65c-0.49,0.99-1.01,1.68-1.56,2.08c-0.29,0.22-0.78,0.43-1.46,0.62c-0.68,0.19-1.42,0.32-2.23,0.39
		l1.5-3.92c1.46-0.16,2.5-0.3,3.12-0.44c-1.26-0.96-3.05-1.45-5.37-1.45c0.33-1,0.69-1.93,1.1-2.8s0.78-1.5,1.12-1.9
		c2.25-1.63,4.96-3.22,8.11-4.75C356.27,22.28,355.7,23.45,354.87,24.55z"/>
	<g>
		<path class="st0" d="M18.34,15.17c0.18,0.44,0.27,0.9,0.27,1.39c0,0.73-0.19,1.36-0.57,1.89c-0.38,0.53-0.84,0.79-1.39,0.79
			c-0.57,0-0.98-0.27-1.22-0.82c-0.16,0.47-0.38,0.84-0.66,1.13c-0.28,0.28-0.59,0.43-0.93,0.43c-0.33,0-0.59-0.15-0.81-0.44
			c-0.21-0.29-0.32-0.69-0.32-1.17c0-0.69,0.26-1.44,0.79-2.26l0.3,0.15c-0.06,0.2-0.09,0.42-0.09,0.64c0,0.3,0.06,0.55,0.18,0.73
			c0.12,0.18,0.28,0.28,0.49,0.28c0.55,0,0.94-0.66,1.16-1.98h0.37c0.02,0.83,0.36,1.25,1.01,1.25c0.18,0,0.37-0.06,0.55-0.17
			c0.18-0.11,0.31-0.24,0.4-0.38c-0.2-0.43-0.6-0.85-1.19-1.28L17.55,14C17.89,14.34,18.16,14.73,18.34,15.17z"/>
	</g>
	<g>
		<path class="st0" d="M239.02,45.92l8.99-3.66l0.14,1.58l-8.85,3.16L239.02,45.92z"/>
	</g>
	<g>
		<path class="st0" d="M40.55,8.88l-0.67,1.94c-0.12,0.04-0.27,0.06-0.46,0.06c-0.36,0-0.77-0.1-1.21-0.3
			c-0.69,0.65-1.32,1-1.91,1.06c-0.47-0.04-0.98-0.2-1.53-0.49c-0.56-0.28-0.95-0.59-1.17-0.91c1.05-0.22,2.16-0.49,3.34-0.79
			c-0.22-0.34-0.33-0.72-0.33-1.12c0-0.3,0.09-0.69,0.26-1.15c0.17-0.47,0.34-0.8,0.5-1c0.14-0.14,0.33-0.26,0.56-0.35
			c0.23-0.09,0.45-0.14,0.65-0.14c0.36,0,0.67,0.13,0.91,0.39c0.24,0.26,0.36,0.65,0.36,1.15c0,0.53-0.16,1.11-0.49,1.76
			C39.73,9,40.12,8.96,40.55,8.88z M37.21,7.94c0.28,0.59,0.81,0.93,1.58,1.03c0-0.85-0.26-1.27-0.79-1.27
			C37.67,7.7,37.41,7.78,37.21,7.94z"/>
	</g>
</g>
</svg>
